ply
format ascii 1.0
comment Synthetic parameter example; not a measured object or trained splat
comment Units and parameter encoding intentionally unspecified
element vertex 2
property float x
property float y
property float z
property float f_dc_0
property float f_dc_1
property float f_dc_2
property float opacity
property float scale_0
property float scale_1
property float scale_2
property float rot_0
property float rot_1
property float rot_2
property float rot_3
end_header
0 0 0 0 0 0 0 -2 -2 -2 1 0 0 0
1 2 3 0.1 0.2 0.3 0 -2 -2 -2 1 0 0 0
