# OpenVDB reconstruction; mm; analytic constructed fixture
v -36.6666679 -36.6666679 -36.6666679
v -37.5 -37.5 -30
v -37.5 -37.5 -20
v -37.5 -37.5 -10
v -37.5 -37.5 0
v -37.5 -37.5 10
v -37.5 -37.5 20
v -37.5 -37.5 30
v -37.5 -30 -37.5
v -40 -30 -30
v -40 -30 -20
v -40 -30 -10
v -40 -30 0
v -40 -30 10
v -40 -30 20
v -40 -30 30
v -37.5 -20 -37.5
v -40 -20 -30
v -40 -20 -20
v -40 -20 -10
v -40 -20 0
v -40 -20 10
v -40 -20 20
v -40 -20 30
v -37.5 -10 -37.5
v -40 -10 -30
v -40 -10 -20
v -40 -10 -10
v -40 -10 0
v -40 -10 10
v -40 -10 20
v -40 -10 30
v -37.5 0 -37.5
v -40 0 -30
v -40 0 -20
v -40 0 -10
v -40 0 0
v -40 0 10
v -40 0 20
v -40 0 30
v -37.5 10 -37.5
v -40 10 -30
v -40 10 -20
v -40 10 -10
v -40 10 0
v -40 10 10
v -40 10 20
v -40 10 30
v -37.5 20 -37.5
v -40 20 -30
v -40 20 -20
v -40 20 -10
v -40 20 0
v -40 20 10
v -40 20 20
v -40 20 30
v -37.5 30 -37.5
v -40 30 -30
v -40 30 -20
v -40 30 -10
v -40 30 0
v -40 30 10
v -40 30 20
v -40 30 30
v -30 -37.5 -37.5
v -30 -40 -30
v -30 -40 -20
v -30 -40 -10
v -30 -40 0
v -30 -40 10
v -30 -40 20
v -30 -40 30
v -30 -30 -40
v -30 -20 -40
v -30 -10 -40
v -30 0 -40
v -30 10 -40
v -30 20 -40
v -30 30 -40
v -20 -37.5 -37.5
v -20 -40 -30
v -20 -40 -20
v -20 -40 -10
v -20 -40 0
v -20 -40 10
v -20 -40 20
v -20 -40 30
v -20 -30 -40
v -20 -20 -40
v -20 -10 -39.8313828
v -20 0 -39.6627617
v -20 10 -39.8313828
v -20 20 -40
v -20 30 -40
v -10 -37.5 -37.5
v -10 -40 -30
v -10 -40 -20
v -10 -40 -10
v -10 -40 0
v -10 -40 10
v -10 -40 20
v -10 -40 30
v -10 -30 -40
v -10 -20 -39.8313828
v -10.127861 -10.127861 -37.7302094
v -7.81965208 -7.81965208 -30
v -7.81965208 -7.81965208 -20
v -7.81965208 -7.81965208 -10
v -7.81965208 -7.81965208 0
v -7.81965208 -7.81965208 10
v -7.81965208 -7.81965208 20
v -7.81965208 -7.81965208 30
v -12.8196516 0 -37.1627617
v -10.6393042 0 -30
v -10.6393042 0 -20
v -10.6393042 0 -10
v -10.6393042 0 0
v -10.6393042 0 10
v -10.6393042 0 20
v -10.6393042 0 30
v -10.127861 10.127861 -37.7302094
v -7.81965208 7.81965208 -30
v -7.81965208 7.81965208 -20
v -7.81965208 7.81965208 -10
v -7.81965208 7.81965208 0
v -7.81965208 7.81965208 10
v -7.81965208 7.81965208 20
v -7.81965208 7.81965208 30
v -10 20 -39.8313828
v -10 30 -40
v 0 -37.5 -37.5
v 0 -40 -30
v 0 -40 -20
v 0 -40 -10
v 0 -40 0
v 0 -40 10
v 0 -40 20
v 0 -40 30
v 0 -30 -40
v 0 -20 -39.6627617
v 0 -12.8196516 -37.1627617
v 0 -10.6393042 -30
v 0 -10.6393042 -20
v 0 -10.6393042 -10
v 0 -10.6393042 0
v 0 -10.6393042 10
v 0 -10.6393042 20
v 0 -10.6393042 30
v 0 12.8196516 -37.1627617
v 0 10.6393042 -30
v 0 10.6393042 -20
v 0 10.6393042 -10
v 0 10.6393042 0
v 0 10.6393042 10
v 0 10.6393042 20
v 0 10.6393042 30
v 0 20 -39.6627617
v 0 30 -40
v 10 -37.5 -37.5
v 10 -40 -30
v 10 -40 -20
v 10 -40 -10
v 10 -40 0
v 10 -40 10
v 10 -40 20
v 10 -40 30
v 10 -30 -40
v 10 -20 -39.8313828
v 10.127861 -10.127861 -37.7302094
v 7.81965208 -7.81965208 -30
v 7.81965208 -7.81965208 -20
v 7.81965208 -7.81965208 -10
v 7.81965208 -7.81965208 0
v 7.81965208 -7.81965208 10
v 7.81965208 -7.81965208 20
v 7.81965208 -7.81965208 30
v 12.8196516 0 -37.1627617
v 10.6393042 0 -30
v 10.6393042 0 -20
v 10.6393042 0 -10
v 10.6393042 0 0
v 10.6393042 0 10
v 10.6393042 0 20
v 10.6393042 0 30
v 10.127861 10.127861 -37.7302094
v 7.81965208 7.81965208 -30
v 7.81965208 7.81965208 -20
v 7.81965208 7.81965208 -10
v 7.81965208 7.81965208 0
v 7.81965208 7.81965208 10
v 7.81965208 7.81965208 20
v 7.81965208 7.81965208 30
v 10 20 -39.8313828
v 10 30 -40
v 20 -37.5 -37.5
v 20 -40 -30
v 20 -40 -20
v 20 -40 -10
v 20 -40 0
v 20 -40 10
v 20 -40 20
v 20 -40 30
v 20 -30 -40
v 20 -20 -40
v 20 -10 -39.8313828
v 20 0 -39.6627617
v 20 10 -39.8313828
v 20 20 -40
v 20 30 -40
v 30 -37.5 -37.5
v 30 -40 -30
v 30 -40 -20
v 30 -40 -10
v 30 -40 0
v 30 -40 10
v 30 -40 20
v 30 -40 30
v 30 -30 -40
v 30 -20 -40
v 30 -10 -40
v 30 0 -40
v 30 10 -40
v 30 20 -40
v 30 30 -40
v -36.6666679 -36.6666679 36.6666679
v -37.5 -30 37.5
v -37.5 -20 37.5
v -37.5 -10 37.5
v -37.5 0 37.5
v -37.5 10 37.5
v -37.5 20 37.5
v -37.5 30 37.5
v -30 -37.5 37.5
v -30 -30 40
v -30 -20 40
v -30 -10 40
v -30 0 40
v -30 10 40
v -30 20 40
v -30 30 40
v -20 -37.5 37.5
v -20 -30 40
v -20 -20 40
v -20 -10 39.8313828
v -20 0 39.6627617
v -20 10 39.8313828
v -20 20 40
v -20 30 40
v -10 -37.5 37.5
v -10 -30 40
v -10 -20 39.8313828
v -10.127861 -10.127861 37.7302094
v -12.8196516 0 37.1627617
v -10.127861 10.127861 37.7302094
v -10 20 39.8313828
v -10 30 40
v 0 -37.5 37.5
v 0 -30 40
v 0 -20 39.6627617
v 0 -12.8196516 37.1627617
v 0 12.8196516 37.1627617
v 0 20 39.6627617
v 0 30 40
v 10 -37.5 37.5
v 10 -30 40
v 10 -20 39.8313828
v 10.127861 -10.127861 37.7302094
v 12.8196516 0 37.1627617
v 10.127861 10.127861 37.7302094
v 10 20 39.8313828
v 10 30 40
v 20 -37.5 37.5
v 20 -30 40
v 20 -20 40
v 20 -10 39.8313828
v 20 0 39.6627617
v 20 10 39.8313828
v 20 20 40
v 20 30 40
v 30 -37.5 37.5
v 30 -30 40
v 30 -20 40
v 30 -10 40
v 30 0 40
v 30 10 40
v 30 20 40
v 30 30 40
v -36.6666679 36.6666679 -36.6666679
v -37.5 37.5 -30
v -37.5 37.5 -20
v -37.5 37.5 -10
v -37.5 37.5 0
v -37.5 37.5 10
v -37.5 37.5 20
v -37.5 37.5 30
v -30 37.5 -37.5
v -30 40 -30
v -30 40 -20
v -30 40 -10
v -30 40 0
v -30 40 10
v -30 40 20
v -30 40 30
v -20 37.5 -37.5
v -20 40 -30
v -20 40 -20
v -20 40 -10
v -20 40 0
v -20 40 10
v -20 40 20
v -20 40 30
v -10 37.5 -37.5
v -10 40 -30
v -10 40 -20
v -10 40 -10
v -10 40 0
v -10 40 10
v -10 40 20
v -10 40 30
v 0 37.5 -37.5
v 0 40 -30
v 0 40 -20
v 0 40 -10
v 0 40 0
v 0 40 10
v 0 40 20
v 0 40 30
v 10 37.5 -37.5
v 10 40 -30
v 10 40 -20
v 10 40 -10
v 10 40 0
v 10 40 10
v 10 40 20
v 10 40 30
v 20 37.5 -37.5
v 20 40 -30
v 20 40 -20
v 20 40 -10
v 20 40 0
v 20 40 10
v 20 40 20
v 20 40 30
v 30 37.5 -37.5
v 30 40 -30
v 30 40 -20
v 30 40 -10
v 30 40 0
v 30 40 10
v 30 40 20
v 30 40 30
v -36.6666679 36.6666679 36.6666679
v -30 37.5 37.5
v -20 37.5 37.5
v -10 37.5 37.5
v 0 37.5 37.5
v 10 37.5 37.5
v 20 37.5 37.5
v 30 37.5 37.5
v 36.6666679 -36.6666679 -36.6666679
v 37.5 -37.5 -30
v 37.5 -37.5 -20
v 37.5 -37.5 -10
v 37.5 -37.5 0
v 37.5 -37.5 10
v 37.5 -37.5 20
v 37.5 -37.5 30
v 37.5 -30 -37.5
v 40 -30 -30
v 40 -30 -20
v 40 -30 -10
v 40 -30 0
v 40 -30 10
v 40 -30 20
v 40 -30 30
v 37.5 -20 -37.5
v 40 -20 -30
v 40 -20 -20
v 40 -20 -10
v 40 -20 0
v 40 -20 10
v 40 -20 20
v 40 -20 30
v 37.5 -10 -37.5
v 40 -10 -30
v 40 -10 -20
v 40 -10 -10
v 40 -10 0
v 40 -10 10
v 40 -10 20
v 40 -10 30
v 37.5 0 -37.5
v 40 0 -30
v 40 0 -20
v 40 0 -10
v 40 0 0
v 40 0 10
v 40 0 20
v 40 0 30
v 37.5 10 -37.5
v 40 10 -30
v 40 10 -20
v 40 10 -10
v 40 10 0
v 40 10 10
v 40 10 20
v 40 10 30
v 37.5 20 -37.5
v 40 20 -30
v 40 20 -20
v 40 20 -10
v 40 20 0
v 40 20 10
v 40 20 20
v 40 20 30
v 37.5 30 -37.5
v 40 30 -30
v 40 30 -20
v 40 30 -10
v 40 30 0
v 40 30 10
v 40 30 20
v 40 30 30
v 36.6666679 -36.6666679 36.6666679
v 37.5 -30 37.5
v 37.5 -20 37.5
v 37.5 -10 37.5
v 37.5 0 37.5
v 37.5 10 37.5
v 37.5 20 37.5
v 37.5 30 37.5
v 36.6666679 36.6666679 -36.6666679
v 37.5 37.5 -30
v 37.5 37.5 -20
v 37.5 37.5 -10
v 37.5 37.5 0
v 37.5 37.5 10
v 37.5 37.5 20
v 37.5 37.5 30
v 36.6666679 36.6666679 36.6666679
f 9 1 2
f 10 2 3
f 11 3 4
f 12 4 5
f 13 5 6
f 14 6 7
f 15 7 8
f 17 9 10
f 18 10 11
f 19 11 12
f 20 12 13
f 21 13 14
f 22 14 15
f 23 15 16
f 25 17 18
f 26 18 19
f 27 19 20
f 28 20 21
f 29 21 22
f 30 22 23
f 31 23 24
f 33 25 26
f 34 26 27
f 35 27 28
f 36 28 29
f 37 29 30
f 38 30 31
f 39 31 32
f 41 33 34
f 42 34 35
f 43 35 36
f 44 36 37
f 45 37 38
f 46 38 39
f 47 39 40
f 49 41 42
f 50 42 43
f 51 43 44
f 52 44 45
f 53 45 46
f 54 46 47
f 55 47 48
f 57 49 50
f 58 50 51
f 59 51 52
f 60 52 53
f 61 53 54
f 62 54 55
f 63 55 56
f 2 1 65
f 3 2 66
f 4 3 67
f 5 4 68
f 6 5 69
f 7 6 70
f 8 7 71
f 73 65 1
f 74 73 9
f 75 74 17
f 76 75 25
f 77 76 33
f 78 77 41
f 79 78 49
f 66 65 80
f 67 66 81
f 68 67 82
f 69 68 83
f 70 69 84
f 71 70 85
f 72 71 86
f 88 80 65
f 89 88 73
f 90 89 74
f 91 90 75
f 92 91 76
f 93 92 77
f 94 93 78
f 81 80 95
f 82 81 96
f 83 82 97
f 84 83 98
f 85 84 99
f 86 85 100
f 87 86 101
f 103 95 80
f 104 103 88
f 105 104 89
f 113 105 90
f 114 106 105
f 115 107 106
f 116 108 107
f 117 109 108
f 118 110 109
f 119 111 110
f 120 112 111
f 121 113 91
f 122 114 113
f 123 115 114
f 124 116 115
f 125 117 116
f 126 118 117
f 127 119 118
f 128 120 119
f 129 121 92
f 130 129 93
f 96 95 131
f 97 96 132
f 98 97 133
f 99 98 134
f 100 99 135
f 101 100 136
f 102 101 137
f 139 131 95
f 140 139 103
f 141 140 104
f 142 141 105
f 143 142 106
f 144 143 107
f 145 144 108
f 146 145 109
f 147 146 110
f 148 147 111
f 122 121 149
f 123 122 150
f 124 123 151
f 125 124 152
f 126 125 153
f 127 126 154
f 128 127 155
f 157 149 121
f 158 157 129
f 132 131 159
f 133 132 160
f 134 133 161
f 135 134 162
f 136 135 163
f 137 136 164
f 138 137 165
f 167 159 131
f 168 167 139
f 169 168 140
f 170 169 141
f 171 170 142
f 172 171 143
f 173 172 144
f 174 173 145
f 175 174 146
f 176 175 147
f 177 169 170
f 178 170 171
f 179 171 172
f 180 172 173
f 181 173 174
f 182 174 175
f 183 175 176
f 185 177 178
f 150 149 185
f 186 178 179
f 151 150 186
f 187 179 180
f 152 151 187
f 188 180 181
f 153 152 188
f 189 181 182
f 154 153 189
f 190 182 183
f 155 154 190
f 191 183 184
f 156 155 191
f 193 185 149
f 194 193 157
f 160 159 195
f 161 160 196
f 162 161 197
f 163 162 198
f 164 163 199
f 165 164 200
f 166 165 201
f 203 195 159
f 204 203 167
f 205 204 168
f 206 205 169
f 207 206 177
f 208 207 185
f 209 208 193
f 196 195 210
f 197 196 211
f 198 197 212
f 199 198 213
f 200 199 214
f 201 200 215
f 202 201 216
f 218 210 195
f 219 218 203
f 220 219 204
f 221 220 205
f 222 221 206
f 223 222 207
f 224 223 208
f 16 8 225
f 24 16 226
f 32 24 227
f 40 32 228
f 48 40 229
f 56 48 230
f 64 56 231
f 225 8 72
f 226 225 233
f 227 226 234
f 228 227 235
f 229 228 236
f 230 229 237
f 231 230 238
f 232 231 239
f 233 72 87
f 234 233 241
f 235 234 242
f 236 235 243
f 237 236 244
f 238 237 245
f 239 238 246
f 240 239 247
f 241 87 102
f 242 241 249
f 243 242 250
f 244 243 251
f 253 252 112
f 245 244 252
f 254 253 120
f 246 245 253
f 247 246 254
f 248 247 255
f 249 102 138
f 250 249 257
f 251 250 258
f 260 148 112
f 252 251 259
f 254 128 156
f 255 254 261
f 256 255 262
f 257 138 166
f 258 257 264
f 259 258 265
f 267 176 148
f 260 259 266
f 184 176 267
f 192 184 268
f 261 156 192
f 262 261 269
f 263 262 270
f 264 166 202
f 265 264 272
f 266 265 273
f 267 266 274
f 268 267 275
f 269 268 276
f 270 269 277
f 271 270 278
f 272 202 217
f 273 272 280
f 274 273 281
f 275 274 282
f 276 275 283
f 277 276 284
f 278 277 285
f 279 278 286
f 288 57 58
f 289 58 59
f 290 59 60
f 291 60 61
f 292 61 62
f 293 62 63
f 294 63 64
f 296 79 57
f 297 296 288
f 298 297 289
f 299 298 290
f 300 299 291
f 301 300 292
f 302 301 293
f 303 302 294
f 304 94 79
f 305 304 296
f 306 305 297
f 307 306 298
f 308 307 299
f 309 308 300
f 310 309 301
f 311 310 302
f 312 130 94
f 313 312 304
f 314 313 305
f 315 314 306
f 316 315 307
f 317 316 308
f 318 317 309
f 319 318 310
f 320 158 130
f 321 320 312
f 322 321 313
f 323 322 314
f 324 323 315
f 325 324 316
f 326 325 317
f 327 326 318
f 328 194 158
f 329 328 320
f 330 329 321
f 331 330 322
f 332 331 323
f 333 332 324
f 334 333 325
f 335 334 326
f 336 209 194
f 337 336 328
f 338 337 329
f 339 338 330
f 340 339 331
f 341 340 332
f 342 341 333
f 343 342 334
f 344 224 209
f 345 344 336
f 346 345 337
f 347 346 338
f 348 347 339
f 349 348 340
f 350 349 341
f 351 350 342
f 295 64 232
f 353 303 295
f 352 232 240
f 354 311 303
f 353 240 248
f 355 319 311
f 354 248 256
f 356 327 319
f 355 256 263
f 357 335 327
f 356 263 271
f 358 343 335
f 357 271 279
f 359 351 343
f 358 279 287
f 211 210 360
f 212 211 361
f 213 212 362
f 214 213 363
f 215 214 364
f 216 215 365
f 217 216 366
f 368 360 210
f 369 361 360
f 370 362 361
f 371 363 362
f 372 364 363
f 373 365 364
f 374 366 365
f 375 367 366
f 376 368 218
f 377 369 368
f 378 370 369
f 379 371 370
f 380 372 371
f 381 373 372
f 382 374 373
f 383 375 374
f 384 376 219
f 385 377 376
f 386 378 377
f 387 379 378
f 388 380 379
f 389 381 380
f 390 382 381
f 391 383 382
f 392 384 220
f 393 385 384
f 394 386 385
f 395 387 386
f 396 388 387
f 397 389 388
f 398 390 389
f 399 391 390
f 400 392 221
f 401 393 392
f 402 394 393
f 403 395 394
f 404 396 395
f 405 397 396
f 406 398 397
f 407 399 398
f 408 400 222
f 409 401 400
f 410 402 401
f 411 403 402
f 412 404 403
f 413 405 404
f 414 406 405
f 415 407 406
f 416 408 223
f 417 409 408
f 418 410 409
f 419 411 410
f 420 412 411
f 421 413 412
f 422 414 413
f 423 415 414
f 280 217 367
f 425 424 367
f 281 280 424
f 426 425 375
f 282 281 425
f 427 426 383
f 283 282 426
f 428 427 391
f 284 283 427
f 429 428 399
f 285 284 428
f 430 429 407
f 286 285 429
f 431 430 415
f 287 286 430
f 432 416 224
f 433 417 416
f 433 432 344
f 434 418 417
f 434 433 345
f 435 419 418
f 435 434 346
f 436 420 419
f 436 435 347
f 437 421 420
f 437 436 348
f 438 422 421
f 438 437 349
f 439 423 422
f 439 438 350
f 440 431 423
f 440 439 351
f 359 287 431
f 9 2 10
f 10 3 11
f 11 4 12
f 12 5 13
f 13 6 14
f 14 7 15
f 15 8 16
f 17 10 18
f 18 11 19
f 19 12 20
f 20 13 21
f 21 14 22
f 22 15 23
f 23 16 24
f 25 18 26
f 26 19 27
f 27 20 28
f 28 21 29
f 29 22 30
f 30 23 31
f 31 24 32
f 33 26 34
f 34 27 35
f 35 28 36
f 36 29 37
f 37 30 38
f 38 31 39
f 39 32 40
f 41 34 42
f 42 35 43
f 43 36 44
f 44 37 45
f 45 38 46
f 46 39 47
f 47 40 48
f 49 42 50
f 50 43 51
f 51 44 52
f 52 45 53
f 53 46 54
f 54 47 55
f 55 48 56
f 57 50 58
f 58 51 59
f 59 52 60
f 60 53 61
f 61 54 62
f 62 55 63
f 63 56 64
f 2 65 66
f 3 66 67
f 4 67 68
f 5 68 69
f 6 69 70
f 7 70 71
f 8 71 72
f 73 1 9
f 74 9 17
f 75 17 25
f 76 25 33
f 77 33 41
f 78 41 49
f 79 49 57
f 66 80 81
f 67 81 82
f 68 82 83
f 69 83 84
f 70 84 85
f 71 85 86
f 72 86 87
f 88 65 73
f 89 73 74
f 90 74 75
f 91 75 76
f 92 76 77
f 93 77 78
f 94 78 79
f 81 95 96
f 82 96 97
f 83 97 98
f 84 98 99
f 85 99 100
f 86 100 101
f 87 101 102
f 103 80 88
f 104 88 89
f 105 89 90
f 113 90 91
f 114 105 113
f 115 106 114
f 116 107 115
f 117 108 116
f 118 109 117
f 119 110 118
f 120 111 119
f 121 91 92
f 122 113 121
f 123 114 122
f 124 115 123
f 125 116 124
f 126 117 125
f 127 118 126
f 128 119 127
f 129 92 93
f 130 93 94
f 96 131 132
f 97 132 133
f 98 133 134
f 99 134 135
f 100 135 136
f 101 136 137
f 102 137 138
f 139 95 103
f 140 103 104
f 141 104 105
f 142 105 106
f 143 106 107
f 144 107 108
f 145 108 109
f 146 109 110
f 147 110 111
f 148 111 112
f 122 149 150
f 123 150 151
f 124 151 152
f 125 152 153
f 126 153 154
f 127 154 155
f 128 155 156
f 157 121 129
f 158 129 130
f 132 159 160
f 133 160 161
f 134 161 162
f 135 162 163
f 136 163 164
f 137 164 165
f 138 165 166
f 167 131 139
f 168 139 140
f 169 140 141
f 170 141 142
f 171 142 143
f 172 143 144
f 173 144 145
f 174 145 146
f 175 146 147
f 176 147 148
f 177 170 178
f 178 171 179
f 179 172 180
f 180 173 181
f 181 174 182
f 182 175 183
f 183 176 184
f 185 178 186
f 150 185 186
f 186 179 187
f 151 186 187
f 187 180 188
f 152 187 188
f 188 181 189
f 153 188 189
f 189 182 190
f 154 189 190
f 190 183 191
f 155 190 191
f 191 184 192
f 156 191 192
f 193 149 157
f 194 157 158
f 160 195 196
f 161 196 197
f 162 197 198
f 163 198 199
f 164 199 200
f 165 200 201
f 166 201 202
f 203 159 167
f 204 167 168
f 205 168 169
f 206 169 177
f 207 177 185
f 208 185 193
f 209 193 194
f 196 210 211
f 197 211 212
f 198 212 213
f 199 213 214
f 200 214 215
f 201 215 216
f 202 216 217
f 218 195 203
f 219 203 204
f 220 204 205
f 221 205 206
f 222 206 207
f 223 207 208
f 224 208 209
f 16 225 226
f 24 226 227
f 32 227 228
f 40 228 229
f 48 229 230
f 56 230 231
f 64 231 232
f 225 72 233
f 226 233 234
f 227 234 235
f 228 235 236
f 229 236 237
f 230 237 238
f 231 238 239
f 232 239 240
f 233 87 241
f 234 241 242
f 235 242 243
f 236 243 244
f 237 244 245
f 238 245 246
f 239 246 247
f 240 247 248
f 241 102 249
f 242 249 250
f 243 250 251
f 244 251 252
f 253 112 120
f 245 252 253
f 254 120 128
f 246 253 254
f 247 254 255
f 248 255 256
f 249 138 257
f 250 257 258
f 251 258 259
f 260 112 252
f 252 259 260
f 254 156 261
f 255 261 262
f 256 262 263
f 257 166 264
f 258 264 265
f 259 265 266
f 267 148 260
f 260 266 267
f 184 267 268
f 192 268 269
f 261 192 269
f 262 269 270
f 263 270 271
f 264 202 272
f 265 272 273
f 266 273 274
f 267 274 275
f 268 275 276
f 269 276 277
f 270 277 278
f 271 278 279
f 272 217 280
f 273 280 281
f 274 281 282
f 275 282 283
f 276 283 284
f 277 284 285
f 278 285 286
f 279 286 287
f 288 58 289
f 289 59 290
f 290 60 291
f 291 61 292
f 292 62 293
f 293 63 294
f 294 64 295
f 296 57 288
f 297 288 289
f 298 289 290
f 299 290 291
f 300 291 292
f 301 292 293
f 302 293 294
f 303 294 295
f 304 79 296
f 305 296 297
f 306 297 298
f 307 298 299
f 308 299 300
f 309 300 301
f 310 301 302
f 311 302 303
f 312 94 304
f 313 304 305
f 314 305 306
f 315 306 307
f 316 307 308
f 317 308 309
f 318 309 310
f 319 310 311
f 320 130 312
f 321 312 313
f 322 313 314
f 323 314 315
f 324 315 316
f 325 316 317
f 326 317 318
f 327 318 319
f 328 158 320
f 329 320 321
f 330 321 322
f 331 322 323
f 332 323 324
f 333 324 325
f 334 325 326
f 335 326 327
f 336 194 328
f 337 328 329
f 338 329 330
f 339 330 331
f 340 331 332
f 341 332 333
f 342 333 334
f 343 334 335
f 344 209 336
f 345 336 337
f 346 337 338
f 347 338 339
f 348 339 340
f 349 340 341
f 350 341 342
f 351 342 343
f 295 232 352
f 353 295 352
f 352 240 353
f 354 303 353
f 353 248 354
f 355 311 354
f 354 256 355
f 356 319 355
f 355 263 356
f 357 327 356
f 356 271 357
f 358 335 357
f 357 279 358
f 359 343 358
f 358 287 359
f 211 360 361
f 212 361 362
f 213 362 363
f 214 363 364
f 215 364 365
f 216 365 366
f 217 366 367
f 368 210 218
f 369 360 368
f 370 361 369
f 371 362 370
f 372 363 371
f 373 364 372
f 374 365 373
f 375 366 374
f 376 218 219
f 377 368 376
f 378 369 377
f 379 370 378
f 380 371 379
f 381 372 380
f 382 373 381
f 383 374 382
f 384 219 220
f 385 376 384
f 386 377 385
f 387 378 386
f 388 379 387
f 389 380 388
f 390 381 389
f 391 382 390
f 392 220 221
f 393 384 392
f 394 385 393
f 395 386 394
f 396 387 395
f 397 388 396
f 398 389 397
f 399 390 398
f 400 221 222
f 401 392 400
f 402 393 401
f 403 394 402
f 404 395 403
f 405 396 404
f 406 397 405
f 407 398 406
f 408 222 223
f 409 400 408
f 410 401 409
f 411 402 410
f 412 403 411
f 413 404 412
f 414 405 413
f 415 406 414
f 416 223 224
f 417 408 416
f 418 409 417
f 419 410 418
f 420 411 419
f 421 412 420
f 422 413 421
f 423 414 422
f 280 367 424
f 425 367 375
f 281 424 425
f 426 375 383
f 282 425 426
f 427 383 391
f 283 426 427
f 428 391 399
f 284 427 428
f 429 399 407
f 285 428 429
f 430 407 415
f 286 429 430
f 431 415 423
f 287 430 431
f 432 224 344
f 433 416 432
f 433 344 345
f 434 417 433
f 434 345 346
f 435 418 434
f 435 346 347
f 436 419 435
f 436 347 348
f 437 420 436
f 437 348 349
f 438 421 437
f 438 349 350
f 439 422 438
f 439 350 351
f 440 423 439
f 440 351 359
f 359 431 440
